<?xml version="1.0" encoding="UTF-8"?>
<svg id="Layer_2" data-name="Layer 2" xmlns="http://www.w3.org/2000/svg" viewBox="0 0 1568 818.77">
  <defs>
    <style>
      .cls-1, .cls-2, .cls-3, .cls-4 {
        fill: #404040;
      }

      .cls-2 {
        font-family: Inter-Bold, Inter;
        font-size: 86.39px;
        font-variation-settings: 'opsz' 14, 'wght' 700;
        font-weight: 700;
      }

      .cls-3 {
        fill-rule: evenodd;
      }

      .cls-4 {
        font-family: SnellRoundhand-Black, 'Snell Roundhand';
        font-size: 156.61px;
        font-weight: 800;
      }
    </style>
  </defs>
  <g id="Layer_1-2" data-name="Layer 1">
    <path class="cls-1" d="M0,161.09V9.92h341.94v694.03h-169.23V161.09H0Z"/>
    <g>
      <path class="cls-3" d="M642.2,0c-196.24,0-355.31,159.08-355.31,355.31,0,141.8,83.06,264.16,203.16,321.16,40.82-25.96,83.33-51,126.99-74.96-91.15-44.43-153.96-137.98-153.96-246.2,0-151.19,122.56-273.75,273.74-273.75,92.59,0,174.43,45.98,223.97,116.33C902.75,80.64,781.9,0,642.2,0Z"/>
      <path class="cls-3" d="M736.83,94.63c-105.16,0-195.78,62.28-236.99,151.98,32.73-42.8,84.32-70.42,142.37-70.42,98.93,0,179.12,80.19,179.12,179.12s-80.2,179.12-179.12,179.12c-58.05,0-109.64-27.62-142.37-70.42,26.5,57.66,73.41,104,131.48,129.73,113.71-61.41,234.7-115.29,353.55-158.05,8.2-25.32,12.66-52.33,12.66-80.39,0-143.98-116.71-260.68-260.69-260.68Z"/>
    </g>
    <g>
      <path class="cls-3" d="M1170.04,391.29c-240.04,63.66-526.03,191.18-745.87,344.85h311.43c136.64-134.87,291.4-256.87,434.44-344.85Z"/>
      <path class="cls-3" d="M735.61,736.14c136.64-134.87,291.4-256.87,434.44-344.85-186.36,78.34-397.05,202.79-574.96,344.85h140.52Z"/>
    </g>
    <text class="cls-4" transform="translate(1325.26 550.02)"><tspan x="0" y="0" xml:space="preserve">     </tspan><tspan x="-481.26" y="187.93">ra trường</tspan></text>
    <text class="cls-2" transform="translate(974.9 622.76)"><tspan x="0" y="0" xml:space="preserve"> Năm A3K47</tspan></text>
  </g>
</svg>